<?xml version="1.0" standalone="no"?>
<!DOCTYPE svg PUBLIC "-//W3C//DTD SVG 20010904//EN"
 "http://www.w3.org/TR/2001/REC-SVG-20010904/DTD/svg10.dtd">
<svg version="1.0" xmlns="http://www.w3.org/2000/svg"
 width="180px" height="80px" viewBox="0 0 1920.000000 1516.000000"
 preserveAspectRatio="xMidYMid meet">

<g transform="translate(0.000000,1516.000000) scale(0.100000,-0.100000)"
fill="#000000" stroke="none">
<path d="M2776 15074 c-121 -187 -205 -392 -248 -606 -28 -144 -30 -384 -4
-528 37 -209 100 -393 204 -595 32 -60 59 -113 61 -118 2 -5 -23 8 -55 30 -76
51 -234 143 -305 178 -52 26 -59 33 -93 104 -116 235 -271 456 -436 622 -255
258 -527 398 -900 466 -133 24 -461 23 -625 -1 -123 -18 -340 -63 -363 -75
-15 -9 117 -279 203 -415 288 -456 652 -723 1124 -823 118 -26 142 -27 376
-27 214 0 269 3 380 22 72 12 137 25 146 28 17 5 270 -158 414 -266 54 -40 63
-51 42 -46 -433 99 -807 89 -1182 -31 -290 -93 -537 -255 -700 -456 -32 -40
-36 -50 -24 -58 8 -6 80 -43 161 -83 605 -301 1154 -270 1643 91 50 37 152
129 229 205 l139 138 86 -77 c108 -96 463 -454 457 -460 -3 -3 -44 4 -93 15
-135 32 -235 43 -388 43 -154 -1 -272 -17 -404 -57 -226 -69 -455 -215 -642
-411 -135 -141 -310 -377 -292 -393 15 -14 189 -79 310 -115 187 -57 322 -77
513 -78 180 0 291 17 446 69 255 85 513 276 720 530 42 52 78 94 79 94 22 0
435 -620 435 -653 0 -5 -10 -7 -22 -4 -65 16 -265 29 -367 23 -495 -29 -871
-258 -1178 -716 -59 -88 -167 -279 -161 -285 2 -2 52 -18 112 -34 577 -162
1051 -95 1442 204 88 68 243 228 309 319 91 125 74 123 140 10 31 -54 89 -151
127 -214 62 -101 69 -118 60 -140 -6 -14 -22 -53 -36 -87 -27 -63 -59 -183
-70 -261 l-6 -42 62 50 c60 49 188 121 212 119 6 0 49 -55 96 -121 140 -200
491 -638 511 -638 3 0 14 18 24 41 24 52 103 123 163 145 26 10 48 19 50 20 2
1 -51 66 -117 145 -67 78 -178 217 -247 308 l-126 166 31 3 c53 5 210 -27 289
-60 157 -65 306 -196 493 -430 408 -512 613 -1071 734 -2003 326 -2506 1349
-3783 3350 -4184 341 -68 682 -104 1199 -126 187 -8 379 -19 426 -25 438 -54
820 -223 1215 -538 144 -116 460 -428 610 -604 256 -302 511 -646 779 -1052
l151 -228 13 43 c23 79 43 221 49 349 16 352 -88 754 -311 1199 -43 84 -76
155 -74 157 7 6 270 -175 365 -252 531 -430 929 -1105 1382 -2346 49 -132 91
-236 94 -232 12 20 48 214 62 332 17 147 20 455 5 622 -59 652 -324 1409 -653
1865 -35 50 -63 91 -62 93 7 8 150 -72 246 -137 368 -247 696 -678 1023 -1346
57 -115 138 -292 181 -392 43 -101 82 -183 86 -183 13 0 68 155 94 263 88 365
68 836 -51 1178 -38 111 -108 257 -155 326 -16 23 -29 44 -29 47 0 4 44 -30
98 -75 329 -274 696 -446 1109 -521 113 -20 159 -23 393 -23 220 1 288 4 401
22 147 23 459 91 471 102 4 3 -52 24 -125 45 -857 252 -1368 471 -1720 738
-81 62 -267 234 -267 248 0 4 62 10 138 13 105 4 164 12 254 36 111 28 297
105 312 129 4 7 -8 13 -31 17 -765 121 -1583 459 -2330 961 -699 471 -1320
1067 -1891 1816 -45 59 -82 109 -82 112 0 2 33 6 73 10 1340 124 2202 820
2585 2086 43 143 122 472 122 511 0 7 -82 -70 -182 -170 -507 -509 -939 -799
-1544 -1038 -179 -71 -514 -187 -521 -180 -1 2 90 66 204 142 823 547 1312
969 1660 1432 258 343 439 732 534 1143 30 131 63 320 56 326 -2 2 -67 -47
-144 -109 -357 -285 -709 -502 -1040 -641 -140 -58 -300 -112 -309 -103 -3 2
26 38 63 78 252 274 466 538 620 769 508 761 601 1420 372 2625 -39 209 -139
669 -146 675 -3 3 -8 0 -10 -7 -12 -32 -280 -471 -388 -633 -731 -1101 -1496
-1788 -2452 -2199 -222 -96 -464 -181 -913 -322 -228 -72 -486 -157 -575 -191
-700 -263 -1104 -623 -1432 -1274 l-77 -154 -56 31 c-87 49 -276 175 -385 257
-490 368 -956 874 -1424 1547 -178 256 -270 372 -388 491 -267 269 -599 448
-981 530 -159 34 -412 43 -557 20 -428 -71 -776 -359 -951 -788 -26 -65 -32
-71 -128 -142 -56 -41 -136 -107 -180 -147 -61 -57 -80 -70 -87 -58 -5 8 -61
103 -124 213 l-114 199 106 116 c319 348 459 591 519 901 24 128 25 391 0 550
-19 125 -45 250 -52 250 -17 0 -224 -129 -308 -192 -366 -274 -526 -643 -488
-1128 6 -69 9 -126 7 -128 -2 -2 -48 57 -103 130 -81 107 -259 329 -339 420
-14 16 -8 25 71 110 255 273 409 552 466 843 25 131 27 334 5 456 -45 242
-173 511 -354 739 -24 31 -25 30 -146 -119 -192 -238 -330 -472 -395 -670 -51
-157 -63 -252 -57 -446 6 -182 24 -284 87 -487 17 -53 30 -99 30 -103 0 -4
-69 59 -153 141 -83 82 -209 198 -280 258 -70 60 -127 111 -127 113 0 2 25 47
56 100 418 710 337 1360 -249 1987 l-83 89 -58 -89z"/>
</g>
</svg>
