<?xml version="1.0" standalone="no"?>
<!DOCTYPE svg PUBLIC "-//W3C//DTD SVG 20010904//EN"
 "http://www.w3.org/TR/2001/REC-SVG-20010904/DTD/svg10.dtd">
<svg version="1.0" xmlns="http://www.w3.org/2000/svg"
 width="80px" height="80px" viewBox="0 0 612.000000 598.000000"
 preserveAspectRatio="xMidYMid meet">

<g transform="translate(0.000000,598.000000) scale(0.100000,-0.100000)"
fill="#000000" stroke="none">
<path d="M1320 5485 c0 -22 -5 -109 -10 -193 -11 -173 1 -410 26 -543 58 -307
211 -567 498 -848 53 -51 96 -95 96 -97 0 -2 -18 -4 -40 -4 -74 0 -120 -37
-120 -98 0 -93 83 -217 267 -400 116 -115 140 -144 126 -149 -72 -27 -133
-100 -133 -160 0 -74 86 -195 212 -301 228 -190 471 -314 723 -367 123 -26
128 -21 34 38 -334 210 -625 442 -718 572 -34 47 -34 48 -10 42 13 -4 63 -12
110 -19 144 -19 249 15 249 82 0 37 -19 59 -132 156 -99 86 -298 283 -298 296
0 3 35 4 78 1 86 -6 139 6 167 38 22 23 24 69 4 106 -8 14 -136 133 -284 263
-276 242 -416 376 -486 466 -59 76 -124 197 -157 288 -48 132 -48 135 0 71
118 -160 324 -316 578 -439 85 -42 371 -169 444 -197 106 -42 397 -189 488
-246 361 -227 544 -498 604 -893 22 -146 16 -446 -11 -595 -7 -34 9 -9 105
167 133 245 319 405 510 439 166 29 341 -55 411 -198 25 -50 32 -131 15 -167
-7 -15 -6 -18 5 -14 11 4 21 -9 36 -47 l21 -54 -51 -12 c-27 -6 -86 -25 -131
-40 l-81 -29 165 4 c159 3 256 19 284 47 13 12 -24 51 -114 118 l-76 56 12 40
c21 68 17 117 -16 183 -47 92 -123 150 -263 200 -63 22 -89 25 -202 26 -108 0
-141 -3 -195 -21 -35 -12 -66 -21 -68 -19 -2 2 4 38 12 80 31 150 16 369 -39
561 -48 167 -111 279 -217 383 -76 74 -122 106 -343 235 -300 176 -405 268
-547 482 -118 177 -190 358 -230 576 -12 65 -25 116 -29 111 -11 -11 -58 -158
-84 -262 -77 -306 -52 -546 86 -822 27 -54 49 -100 49 -102 0 -5 -122 44 -269
108 -514 223 -834 550 -1011 1031 -40 108 -50 122 -50 70z m1409 -715 c59
-117 137 -223 233 -317 117 -115 148 -139 388 -300 107 -72 226 -157 265 -190
146 -123 241 -269 286 -438 18 -66 22 -110 23 -250 1 -107 -4 -194 -12 -235
-12 -58 -18 -68 -56 -97 l-43 -31 -6 91 c-13 184 -88 417 -188 587 -147 248
-365 422 -729 583 l-55 24 -62 124 c-107 217 -153 402 -152 614 l0 120 38
-110 c21 -60 52 -139 70 -175z"/>
<path d="M4385 2109 c-66 -118 -163 -247 -257 -341 -345 -345 -817 -427 -1383
-240 -129 42 -278 103 -388 159 -82 41 -79 27 10 -58 171 -163 411 -282 678
-335 128 -26 426 -26 544 0 474 102 768 388 841 818 7 37 10 71 8 76 -1 6 -25
-30 -53 -79z"/>
<path d="M2040 2174 c-398 -33 -678 -150 -897 -375 -86 -88 -135 -156 -192
-268 -75 -147 -120 -310 -134 -491 -3 -44 -2 -50 6 -30 39 96 164 338 207 402
248 370 586 560 1125 633 70 10 230 19 385 22 285 6 289 8 110 48 -196 44
-468 70 -610 59z"/>
<path d="M1918 1695 c-211 -75 -350 -324 -312 -558 6 -34 24 -53 24 -24 0 22
70 200 106 272 46 90 103 174 172 253 30 35 53 64 51 66 -2 2 -21 -2 -41 -9z"/>
<path d="M2101 1669 c-54 -33 -124 -110 -158 -174 -91 -175 -81 -414 27 -628
39 -75 110 -180 118 -173 2 2 -8 55 -22 118 -39 174 -49 277 -43 432 6 161 22
233 78 355 22 46 38 86 36 87 -2 2 -18 -6 -36 -17z"/>
</g>
</svg>
